<svg id="activity-tracker" xmlns="http://www.w3.org/2000/svg" width="69.97" height="69.97" viewBox="0 0 69.97 69.97">
  <g id="Group_22" data-name="Group 22">
    <g id="Group_21" data-name="Group 21">
      <path id="Path_43" data-name="Path 43" d="M59.921,0H10.049A10.06,10.06,0,0,0,0,10.049V59.921A10.06,10.06,0,0,0,10.049,69.97H59.921A10.06,10.06,0,0,0,69.97,59.921V10.049A10.06,10.06,0,0,0,59.921,0Zm7.816,59.921a7.825,7.825,0,0,1-7.816,7.816H10.049a7.825,7.825,0,0,1-7.816-7.816V10.049a7.825,7.825,0,0,1,7.816-7.816H59.921a7.825,7.825,0,0,1,7.816,7.816Z" fill="#fff"/>
      <path id="Path_44" data-name="Path 44" d="M85.455,30H45.383a1.117,1.117,0,0,0,0,2.233H85.455a3.353,3.353,0,0,1,3.35,3.35V46.007a5.553,5.553,0,0,0-3.35-1.12H35.583a5.552,5.552,0,0,0-3.35,1.12V35.583a3.353,3.353,0,0,1,3.35-3.35h5.335a1.117,1.117,0,1,0,0-2.233H35.583A5.589,5.589,0,0,0,30,35.583v29.03A5.589,5.589,0,0,0,35.583,70.2H85.455a5.589,5.589,0,0,0,5.583-5.583V35.583A5.589,5.589,0,0,0,85.455,30ZM88.8,64.613a3.353,3.353,0,0,1-3.35,3.35H35.583a3.353,3.353,0,0,1-3.35-3.35V50.47a3.353,3.353,0,0,1,3.35-3.35H85.455a3.353,3.353,0,0,1,3.35,3.35Z" transform="translate(-25.534 -25.534)" fill="#fff"/>
      <path id="Path_45" data-name="Path 45" d="M95.833,61.117v5.955a1.117,1.117,0,0,0,2.233,0V61.117a1.117,1.117,0,0,0-2.233,0Z" transform="translate(-81.566 -51.068)" fill="#fff"/>
      <path id="Path_46" data-name="Path 46" d="M163.9,67.071V61.117a1.117,1.117,0,1,0-2.233,0v5.955a1.117,1.117,0,1,0,2.233,0Z" transform="translate(-137.599 -51.068)" fill="#fff"/>
      <path id="Path_47" data-name="Path 47" d="M229.733,67.071V61.117a1.117,1.117,0,1,0-2.233,0v5.955a1.117,1.117,0,1,0,2.233,0Z" transform="translate(-193.632 -51.068)" fill="#fff"/>
      <path id="Path_48" data-name="Path 48" d="M295.566,67.071V61.117a1.117,1.117,0,0,0-2.233,0v5.955a1.117,1.117,0,0,0,2.233,0Z" transform="translate(-249.664 -51.068)" fill="#fff"/>
      <path id="Path_49" data-name="Path 49" d="M361.4,67.071V61.117a1.117,1.117,0,1,0-2.233,0v5.955a1.117,1.117,0,1,0,2.233,0Z" transform="translate(-305.697 -51.068)" fill="#fff"/>
      <path id="Path_50" data-name="Path 50" d="M359.094,350a4.094,4.094,0,1,0,4.094,4.094A4.1,4.1,0,0,0,359.094,350Zm0,5.955a1.861,1.861,0,1,1,1.861-1.861A1.863,1.863,0,0,1,359.094,355.955Z" transform="translate(-302.151 -297.895)" fill="#fff"/>
      <path id="Path_51" data-name="Path 51" d="M99.079,315H61.117A1.117,1.117,0,0,0,60,316.117v16.376a1.117,1.117,0,0,0,1.117,1.117H99.079a1.117,1.117,0,0,0,1.117-1.117V316.117A1.117,1.117,0,0,0,99.079,315Zm-1.117,16.376H62.233V317.233H97.962Z" transform="translate(-51.068 -268.105)" fill="#fff"/>
      <path id="Path_52" data-name="Path 52" d="M111.8,361.466l5.086-3.937,5.086,3.937a1.117,1.117,0,0,0,1.367,0l5.085-3.937,5.085,3.937a1.117,1.117,0,1,0,1.367-1.766l-5.768-4.466a1.116,1.116,0,0,0-1.367,0l-5.085,3.937-5.086-3.937a1.117,1.117,0,0,0-1.367,0l-5.769,4.466a1.117,1.117,0,0,0,1.367,1.766Z" transform="translate(-93.624 -302.151)" fill="#fff"/>
    </g>
  </g>
</svg>
