<svg xmlns="http://www.w3.org/2000/svg" width="10" height="14.775" viewBox="0 0 10 14.775">
  <g id="bin" transform="translate(0.003 0.001)">
    <path id="Path_73" data-name="Path 73" d="M222.855,154.7a.457.457,0,0,0-.457.457v8.631a.457.457,0,0,0,.913,0V155.16A.457.457,0,0,0,222.855,154.7Zm0,0" transform="translate(-216.218 -152.365)" fill="#a2a2a2"/>
    <path id="Path_74" data-name="Path 74" d="M104.855,154.7a.457.457,0,0,0-.457.457v8.631a.457.457,0,0,0,.913,0V155.16A.457.457,0,0,0,104.855,154.7Zm0,0" transform="translate(-101.498 -152.365)" fill="#a2a2a2"/>
    <path id="Path_75" data-name="Path 75" d="M.816,4.4v8.525a2.135,2.135,0,0,0,.423,1.317,1.321,1.321,0,0,0,1.03.535H7.725a1.321,1.321,0,0,0,1.03-.535,2.135,2.135,0,0,0,.423-1.317V4.4a1.337,1.337,0,0,0,.81-1.449A1.192,1.192,0,0,0,8.9,1.8H7.419V1.365A1.509,1.509,0,0,0,7.086.4,1.045,1.045,0,0,0,6.277,0H3.716a1.045,1.045,0,0,0-.809.4,1.509,1.509,0,0,0-.333.97V1.8H1.1A1.192,1.192,0,0,0,.006,2.949,1.337,1.337,0,0,0,.816,4.4Zm6.909,9.684H2.269c-.493,0-.877-.508-.877-1.159V4.428H8.6v8.495c0,.651-.384,1.159-.877,1.159ZM3.151,1.365A.74.74,0,0,1,3.315.885a.511.511,0,0,1,.4-.194h2.56a.511.511,0,0,1,.4.194.74.74,0,0,1,.164.481V1.8H3.151ZM1.1,2.49H8.9a.578.578,0,0,1,.519.623.578.578,0,0,1-.519.623H1.1a.578.578,0,0,1-.519-.623A.578.578,0,0,1,1.1,2.49Zm0,0" transform="translate(0 0)" fill="#a2a2a2"/>
    <path id="Path_76" data-name="Path 76" d="M163.855,154.7a.457.457,0,0,0-.457.457v8.631a.457.457,0,0,0,.913,0V155.16A.457.457,0,0,0,163.855,154.7Zm0,0" transform="translate(-158.858 -152.365)" fill="#a2a2a2"/>
  </g>
</svg>
