<svg xmlns="http://www.w3.org/2000/svg" width="67.818" height="65.517" viewBox="0 0 67.818 65.517">
  <g id="bot" transform="translate(0 -0.324)">
    <path id="Path_2" data-name="Path 2" d="M11.618,37.819a.852.852,0,0,0,.524.093.883.883,0,0,0,.726-.688,7.267,7.267,0,0,0,.163-1.162c.253-2.7.786-5.343,4.2-5.343H44.084A4.719,4.719,0,0,0,48.8,26.005V5.038A4.719,4.719,0,0,0,44.084.325H4.714A4.719,4.719,0,0,0,0,5.038V26a4.719,4.719,0,0,0,4.714,4.714h1.58a.512.512,0,0,1,.514.4c.874,4.944,4.114,6.436,4.81,6.7ZM6.294,29.06H4.714a3.059,3.059,0,0,1-3.055-3.055V5.038A3.058,3.058,0,0,1,4.714,1.983h39.37a3.059,3.059,0,0,1,3.055,3.054V26a3.059,3.059,0,0,1-3.055,3.055H17.233c-5.15,0-5.65,4.682-5.846,6.771a7.237,7.237,0,0,1-2.946-5A2.162,2.162,0,0,0,6.294,29.06Zm0,0"/>
    <path id="Path_3" data-name="Path 3" d="M244.681,125.559h-9.954a.829.829,0,1,0,0,1.659h9.954a.829.829,0,0,0,0-1.659Zm0,0" transform="translate(-201.569 -107.924)"/>
    <path id="Path_4" data-name="Path 4" d="M103.73,126.388a.829.829,0,0,0-.829-.829H87.212a.829.829,0,1,0,0,1.659H102.9A.83.83,0,0,0,103.73,126.388Zm0,0" transform="translate(-74.443 -107.924)"/>
    <path id="Path_5" data-name="Path 5" d="M35.958,127.218h3.424a.829.829,0,0,0,0-1.659H35.958a.829.829,0,1,0,0,1.659Zm0,0" transform="translate(-30.273 -107.924)"/>
    <path id="Path_6" data-name="Path 6" d="M287.938,92.081h2.6a.829.829,0,0,0,0-1.659h-2.6a.829.829,0,1,0,0,1.659Zm0,0" transform="translate(-247.424 -77.644)"/>
    <path id="Path_7" data-name="Path 7" d="M234.48,92.081a.829.829,0,0,0,0-1.659H230.13a.829.829,0,1,0,0,1.659Zm0,0" transform="translate(-197.606 -77.644)"/>
    <path id="Path_8" data-name="Path 8" d="M35.958,92.081h23.17a.829.829,0,1,0,0-1.659H35.958a.829.829,0,0,0,0,1.659Zm0,0" transform="translate(-30.273 -77.644)"/>
    <path id="Path_9" data-name="Path 9" d="M291.54,49.928h2.1a.829.829,0,1,0,0-1.659h-2.1a.829.829,0,0,0,0,1.659Zm0,0" transform="translate(-250.529 -41.318)"/>
    <path id="Path_10" data-name="Path 10" d="M199.739,49.928h9a.829.829,0,1,0,0-1.659h-9a.829.829,0,1,0,0,1.659Zm0,0" transform="translate(-171.416 -41.318)"/>
    <path id="Path_11" data-name="Path 11" d="M35.958,49.928H54.927a.829.829,0,0,0,0-1.659H35.958a.829.829,0,1,0,0,1.659Zm0,0" transform="translate(-30.273 -41.318)"/>
    <path id="Path_12" data-name="Path 12" d="M234.02,160.688h-.4a.829.829,0,1,0,0,1.659h.4a.829.829,0,0,0,0-1.659Zm0,0" transform="translate(-200.612 -138.198)"/>
    <path id="Path_13" data-name="Path 13" d="M164.412,160.688H157.22a.829.829,0,0,0,0,1.659h7.192a.829.829,0,0,0,0-1.659Zm0,0" transform="translate(-134.774 -138.198)"/>
    <path id="Path_14" data-name="Path 14" d="M48.961,161.517a.829.829,0,0,0-.829-.829H35.958a.829.829,0,0,0,0,1.659H48.132A.829.829,0,0,0,48.961,161.517Zm0,0" transform="translate(-30.273 -138.198)"/>
    <path id="Path_15" data-name="Path 15" d="M187.975,226.848a4.531,4.531,0,1,0-5.36,4.454v4.965a8.171,8.171,0,0,0-2.043-.476h0a4.982,4.982,0,0,0-4.976-4.976h-6.952v-2.679a2,2,0,0,0-2-2h-5.862v-2.608a.829.829,0,1,0-1.659,0v2.608h-5.764a2,2,0,0,0-2,2v2.679h-6.951a4.982,4.982,0,0,0-4.976,4.976v16.385a4.982,4.982,0,0,0,4.976,4.976H175.6a4.982,4.982,0,0,0,4.976-4.976v0a8.229,8.229,0,0,0,3.7-15.059V231.3a4.538,4.538,0,0,0,3.7-4.454Zm-34.959,1.286a.343.343,0,0,1,.343-.343h13.284a.343.343,0,0,1,.343.343v2.679h-13.97Zm25.9,24.039a3.322,3.322,0,0,1-3.317,3.317h-31.19a3.322,3.322,0,0,1-3.317-3.317V235.789a3.322,3.322,0,0,1,3.317-3.317H175.6a3.322,3.322,0,0,1,3.317,3.317Zm7.4-8.192a6.583,6.583,0,0,1-5.744,6.522V237.459A6.583,6.583,0,0,1,186.317,243.981Zm-5.744-17.133a2.872,2.872,0,1,1,2.872,2.872A2.872,2.872,0,0,1,180.572,226.848Zm0,0" transform="translate(-120.158 -191.308)"/>
    <path id="Path_16" data-name="Path 16" d="M191.992,347.613h-.818a2.768,2.768,0,0,0-2.764,2.764v2.364a.829.829,0,0,0,.829.829h4.688a.829.829,0,0,0,.829-.829v-2.364a2.768,2.768,0,0,0-2.764-2.764Zm1.106,4.3h-3.03v-1.534a1.107,1.107,0,0,1,1.106-1.106h.818a1.107,1.107,0,0,1,1.106,1.106Zm0,0" transform="translate(-162.368 -299.286)"/>
    <path id="Path_17" data-name="Path 17" d="M345.769,347.613h-.818a2.768,2.768,0,0,0-2.764,2.764v2.364a.829.829,0,0,0,.829.829H347.7a.829.829,0,0,0,.829-.829v-2.364A2.768,2.768,0,0,0,345.769,347.613Zm1.106,4.3h-3.03v-1.534a1.107,1.107,0,0,1,1.106-1.106h.818a1.107,1.107,0,0,1,1.106,1.106Zm0,0" transform="translate(-294.889 -299.286)"/>
    <path id="Path_18" data-name="Path 18" d="M258.542,405.789h-9.377a.829.829,0,0,0-.829.829v.818a4.7,4.7,0,0,0,4.7,4.7h1.637a4.7,4.7,0,0,0,4.7-4.7v-.818A.829.829,0,0,0,258.542,405.789Zm-3.87,4.688h-1.637a3.044,3.044,0,0,1-3.041-3.03h7.718A3.044,3.044,0,0,1,254.672,410.477Zm0,0" transform="translate(-214.011 -349.421)"/>
  </g>
</svg>
