<svg xmlns="http://www.w3.org/2000/svg" width="16" height="10.667" viewBox="0 0 16 10.667">
  <g id="email" transform="translate(0 -85.333)">
    <g id="Group_194" data-name="Group 194" transform="translate(0 85.333)">
      <path id="Path_269" data-name="Path 269" d="M15.179,85.333H.821A.823.823,0,0,0,0,86.154v9.026A.823.823,0,0,0,.821,96H15.179A.823.823,0,0,0,16,95.179V86.154A.823.823,0,0,0,15.179,85.333Zm-.308.615-6.4,4.8a.858.858,0,0,1-.944,0l-6.4-4.8Zm-3.418,5.117,3.487,4.308.012.011H1.048l.012-.011,3.487-4.308a.308.308,0,0,0-.478-.387L.615,94.943v-8.61l6.544,4.908a1.469,1.469,0,0,0,1.682,0l6.544-4.908v8.61l-3.453-4.266a.308.308,0,0,0-.478.387Z" transform="translate(0 -85.333)" fill="#707070"/>
    </g>
  </g>
</svg>
