<svg id="face" xmlns="http://www.w3.org/2000/svg" width="50" height="50" viewBox="0 0 50 50">
  <path id="Path_95" data-name="Path 95" d="M16.333,18.667a8.333,8.333,0,1,1,8.333-8.333A8.342,8.342,0,0,1,16.333,18.667Zm0-13.542a5.208,5.208,0,1,0,5.208,5.208A5.213,5.213,0,0,0,16.333,5.125Z" transform="translate(8.667 2.167)" fill="#55d85a"/>
  <path id="Path_96" data-name="Path 96" d="M35.771,28.667A1.563,1.563,0,0,1,34.208,27.1V21.9a6.779,6.779,0,0,0-6.771-6.771H13.9A6.779,6.779,0,0,0,7.125,21.9V27.1A1.563,1.563,0,0,1,4,27.1V21.9A9.907,9.907,0,0,1,13.9,12H27.437a9.907,9.907,0,0,1,9.9,9.9V27.1A1.563,1.563,0,0,1,35.771,28.667Z" transform="translate(4.333 13)" fill="#55d85a"/>
  <path id="Path_97" data-name="Path 97" d="M1.563,13.542A1.563,1.563,0,0,1,0,11.979V5.729A5.734,5.734,0,0,1,5.729,0h6.25a1.563,1.563,0,0,1,0,3.125H5.729a2.608,2.608,0,0,0-2.6,2.6v6.25A1.563,1.563,0,0,1,1.563,13.542Z" fill="#55d85a"/>
  <path id="Path_98" data-name="Path 98" d="M11.979,31.042H5.729A5.734,5.734,0,0,1,0,25.312v-6.25a1.563,1.563,0,0,1,3.125,0v6.25a2.608,2.608,0,0,0,2.6,2.6h6.25a1.563,1.563,0,0,1,0,3.125Z" transform="translate(0 18.958)" fill="#55d85a"/>
  <path id="Path_99" data-name="Path 99" d="M29.479,13.542a1.563,1.563,0,0,1-1.562-1.562V5.729a2.608,2.608,0,0,0-2.6-2.6h-6.25a1.563,1.563,0,0,1,0-3.125h6.25a5.734,5.734,0,0,1,5.729,5.729v6.25A1.563,1.563,0,0,1,29.479,13.542Z" transform="translate(18.958)" fill="#55d85a"/>
  <path id="Path_100" data-name="Path 100" d="M25.312,31.042h-6.25a1.563,1.563,0,1,1,0-3.125h6.25a2.608,2.608,0,0,0,2.6-2.6v-6.25a1.563,1.563,0,1,1,3.125,0v6.25A5.734,5.734,0,0,1,25.312,31.042Z" transform="translate(18.958 18.958)" fill="#55d85a"/>
</svg>
