<svg xmlns="http://www.w3.org/2000/svg" width="74.03" height="93.366" viewBox="0 0 74.03 93.366">
  <g id="funnel" transform="translate(-59.995 -8.608)">
    <path id="Path_22" data-name="Path 22" d="M181.335,115.6v5.671a1.133,1.133,0,0,0,.587.993l7.554,4.157a1.133,1.133,0,0,0,1.679-.993V115.6l11.158-17.788a1.17,1.17,0,0,0,.032-1.171,1.152,1.152,0,0,0-.991-.6h-6.005a4.656,4.656,0,0,0-9.12,0h-15.09a1.158,1.158,0,0,0-.96,1.765Zm9.453-21.013a2.557,2.557,0,0,1,2.2,1.451h-4.393A2.558,2.558,0,0,1,190.788,94.585Zm8.517,3.717L189.063,114.65a1.2,1.2,0,0,0-.173.622v8.237L183.6,120.6v-5.328a1.2,1.2,0,0,0-.173-.622L173.186,98.3Z" transform="translate(-89.235 -67.902)"/>
    <path id="Path_23" data-name="Path 23" d="M254.945,17.918a4.655,4.655,0,1,0-4.655-4.655A4.655,4.655,0,0,0,254.945,17.918Zm0-7.044a2.389,2.389,0,1,1-2.389,2.389,2.389,2.389,0,0,1,2.389-2.389Z" transform="translate(-154.358 0)"/>
    <path id="Path_24" data-name="Path 24" d="M194.789,55.218a4.655,4.655,0,1,0-4.655-4.655,4.655,4.655,0,0,0,4.655,4.655Zm0-7.044a2.389,2.389,0,1,1-2.389,2.389,2.389,2.389,0,0,1,2.389-2.389Z" transform="translate(-105.562 -30.256)"/>
    <path id="Path_25" data-name="Path 25" d="M125.5,331.543l-.252.136a5.383,5.383,0,0,0-6.318-1.485l-.025.013-.789.425a6.957,6.957,0,0,0-7.876-.609l-4.77,2.63H99.113a9.109,9.109,0,0,1-3.927-.936l-.881-.444A15.282,15.282,0,0,0,78.4,332.817c-.025.019-.049.034-.072.054L76.2,334.762a7.2,7.2,0,0,1-2.549,1.464l-1.157-3.755a1.1,1.1,0,0,0-1.083-.762H61.129A1.07,1.07,0,0,0,60,332.918l3.428,28.059a1.093,1.093,0,0,0,1.125.948H79.981a1.082,1.082,0,0,0,1.084-1.408L79.077,354l6.193-3.911a3.626,3.626,0,0,1,2.638-.337c.023.006.047.012.071.016l12.838,2.365a16.788,16.788,0,0,0,10.374-1.465,1.1,1.1,0,0,0,.138-.081l22.2-15.245a1.133,1.133,0,0,0,.329-1.518A6.27,6.27,0,0,0,125.5,331.543Zm-5.534.666a3.024,3.024,0,0,1,3.192.6l-8.2,4.423-.317.167a7.476,7.476,0,0,0-.982-1.79Zm-8.63-.239.027-.015a4.69,4.69,0,0,1,4.5-.107l-3.9,2.1a7.457,7.457,0,0,0-2.268-1.085ZM65.56,359.659l-3.151-25.683h8.164l7.878,25.683Zm44.554-10.981a14.507,14.507,0,0,1-8.891,1.232l-12.8-2.356a5.883,5.883,0,0,0-4.284.582l-.053.031-5.695,3.6-4.077-13.374a9.471,9.471,0,0,0,3.395-1.94l2.091-1.861a13.026,13.026,0,0,1,13.52-1.3l.881.463a11.39,11.39,0,0,0,4.913,1.161h8.54a5.193,5.193,0,0,1,5.079,3.988l-5.963-.288a37.2,37.2,0,0,0-6.768.3,1.13,1.13,0,1,0,.311,2.238,34.915,34.915,0,0,1,6.355-.295l7.284.329H114a1.133,1.133,0,0,0,1.133-1.133c0-.12,0-.24-.009-.359l.9-.474,10.552-5.692a4.007,4.007,0,0,1,4.676.628Z" transform="translate(0 -259.952)"/>
    <path id="Path_26" data-name="Path 26" d="M103.818,457.65a3.19,3.19,0,1,0,3.19-3.19A3.19,3.19,0,0,0,103.818,457.65Zm3.19-.923a.923.923,0,1,1-.923.923A.923.923,0,0,1,107.008,456.726Z" transform="translate(-35.547 -361.654)"/>
    <path id="Path_27" data-name="Path 27" d="M235.2,277.977a4.91,4.91,0,1,0,4.91,4.91A4.91,4.91,0,0,0,235.2,277.977Zm0,7.554a2.644,2.644,0,1,1,2.644-2.644A2.644,2.644,0,0,1,235.2,285.531Z" transform="translate(-138.135 -218.499)"/>
  </g>
</svg>
