<svg xmlns="http://www.w3.org/2000/svg" width="10" height="10.561" viewBox="0 0 10 10.561">
  <g id="graphic" transform="translate(-13.601)">
    <g id="Group_28" data-name="Group 28" transform="translate(13.601 2.399)">
      <g id="Group_27" data-name="Group 27">
        <path id="Path_55" data-name="Path 55" d="M23.395,154.369h-.452v-7.115a.58.58,0,0,0-.555-.6H21.377a.58.58,0,0,0-.554.6v7.115H19.673v-3.891a.58.58,0,0,0-.554-.6H18.108a.58.58,0,0,0-.555.6v3.891H16.4v-2.015a.58.58,0,0,0-.555-.6H14.839a.58.58,0,0,0-.554.6v2.015h-.477a.224.224,0,0,0,0,.447h9.587a.224.224,0,0,0,0-.447Zm-7.4,0H14.7v-2.015a.148.148,0,0,1,.142-.154H15.85a.148.148,0,0,1,.142.154Zm3.269,0h-1.3v-3.891a.148.148,0,0,1,.142-.154h1.011a.148.148,0,0,1,.142.154Zm3.269,0h-1.3v-7.115a.148.148,0,0,1,.142-.154h1.011a.148.148,0,0,1,.142.154Z" transform="translate(-13.601 -146.654)" fill="#a2a2a2"/>
      </g>
    </g>
    <g id="Group_30" data-name="Group 30" transform="translate(13.601)">
      <g id="Group_29" data-name="Group 29">
        <path id="Path_56" data-name="Path 56" d="M108.639.323a.346.346,0,0,0-.074-.233A.229.229,0,0,0,108.373,0H106.83a.284.284,0,0,0-.253.308.284.284,0,0,0,.253.308h.946l-2.5,3.041-.944-1.147a.223.223,0,0,0-.358,0L99.42,8.04a.356.356,0,0,0,0,.435.223.223,0,0,0,.358,0l4.372-5.313.944,1.147a.223.223,0,0,0,.358,0l2.681-3.258V2.09a.258.258,0,1,0,.506,0V.338C108.639.333,108.639.328,108.639.323Z" transform="translate(-99.346)" fill="#a2a2a2"/>
      </g>
    </g>
    <g id="Group_32" data-name="Group 32" transform="translate(15.202 5.929)">
      <g id="Group_31" data-name="Group 31">
        <circle id="Ellipse_8" data-name="Ellipse 8" cx="0.308" cy="0.308" r="0.308" fill="#a2a2a2"/>
      </g>
    </g>
  </g>
</svg>
