<svg xmlns="http://www.w3.org/2000/svg" width="16.059" height="22.273" viewBox="0 0 16.059 22.273">
  <g id="lock" transform="translate(-65.8)">
    <g id="Group_196" data-name="Group 196" transform="translate(65.8)">
      <g id="Group_195" data-name="Group 195" transform="translate(0)">
        <path id="Path_271" data-name="Path 271" d="M79.729,9.472V5.945A5.914,5.914,0,0,0,77.963,1.7,5.726,5.726,0,0,0,73.9,0h-.076a5.931,5.931,0,0,0-5.9,5.945V9.472A2.409,2.409,0,0,0,65.8,11.894v7.923a2.44,2.44,0,0,0,2.422,2.455H79.437a2.44,2.44,0,0,0,2.422-2.455V11.894A2.42,2.42,0,0,0,79.729,9.472ZM68.864,5.945h0A5,5,0,0,1,73.827.93h0A4.891,4.891,0,0,1,77.3,2.356,5,5,0,0,1,78.78,5.945V9.477H77.741V5.945a3.979,3.979,0,0,0-1.176-2.857A3.828,3.828,0,0,0,73.86,1.964h-.028A3.954,3.954,0,0,0,69.9,5.94V9.477H68.864Zm7.937,0V9.477H70.852V5.945a3.007,3.007,0,0,1,2.984-3.031h.028a2.9,2.9,0,0,1,2.045.85A3.044,3.044,0,0,1,76.8,5.945Zm4.155,13.887h0a1.5,1.5,0,0,1-1.5,1.5H68.241a1.5,1.5,0,0,1-1.5-1.5V11.918a1.5,1.5,0,0,1,1.5-1.5H79.46a1.5,1.5,0,0,1,1.5,1.5Z" transform="translate(-65.8)" fill="#707070"/>
      </g>
    </g>
    <g id="Group_198" data-name="Group 198" transform="translate(72.122 14.35)">
      <g id="Group_197" data-name="Group 197" transform="translate(0)">
        <path id="Path_272" data-name="Path 272" d="M203.038,305.132a1.7,1.7,0,1,0-2.106,2.106v1.322a.472.472,0,0,0,.944,0v-1.322A1.7,1.7,0,0,0,203.038,305.132ZM201.4,306.36a.76.76,0,1,1,.76-.76A.76.76,0,0,1,201.4,306.36Z" transform="translate(-199.7 -303.9)" fill="#707070"/>
      </g>
    </g>
  </g>
</svg>
