<svg xmlns="http://www.w3.org/2000/svg" width="73.568" height="73.572" viewBox="0 0 73.568 73.572">
  <g id="love" transform="translate(-0.017 0)">
    <g id="Group_51" data-name="Group 51" transform="translate(0.017 40.466)">
      <g id="Group_50" data-name="Group 50" transform="translate(0)">
        <path id="Path_165" data-name="Path 165" d="M68.913,278.517A6.1,6.1,0,0,0,65,267.706c-.171,0-.331.037-.5.05a6.169,6.169,0,0,0-5.632-3.729,6.085,6.085,0,0,0-5.7,3.935,5.482,5.482,0,0,0-3.316,0,6.093,6.093,0,0,0-11.388-.021,5.738,5.738,0,0,0-3.325.021,6.094,6.094,0,0,0-11.4,0,5.482,5.482,0,0,0-3.316,0,6.085,6.085,0,0,0-5.7-3.935A6.168,6.168,0,0,0,9.1,267.756c-.167-.014-.328-.05-.5-.05a6.1,6.1,0,0,0-3.912,10.811,9.094,9.094,0,0,0-4.671,8.026v9.364a1.225,1.225,0,0,0,1.225,1.226H72.358a1.225,1.225,0,0,0,1.226-1.225h0v-9.364A9.093,9.093,0,0,0,68.913,278.517ZM65,270.158a3.678,3.678,0,1,1-3.678,3.678A3.682,3.682,0,0,1,65,270.158ZM58.87,266.48a3.693,3.693,0,0,1,3.248,1.98,6.111,6.111,0,0,0-3.246,5.36,3.744,3.744,0,0,1-1.251-.208,6.09,6.09,0,0,0-2.269-4.515A3.654,3.654,0,0,1,58.87,266.48Zm-7.357,3.678a3.678,3.678,0,1,1-3.678,3.678A3.682,3.682,0,0,1,51.514,270.158Zm-7.357-3.678a3.654,3.654,0,0,1,3.518,2.616,6.089,6.089,0,0,0-2.266,4.488,3.739,3.739,0,0,1-2.494,0,6.133,6.133,0,0,0-2.27-4.517A3.656,3.656,0,0,1,44.157,266.48Zm-10.517,5.467a3.669,3.669,0,0,1,3.16-1.788,3.585,3.585,0,0,1,1.87.518,3.668,3.668,0,1,1-5.03,1.27Zm-4.2-5.467a3.654,3.654,0,0,1,3.518,2.616,6.089,6.089,0,0,0-2.266,4.488,3.738,3.738,0,0,1-2.5,0,6.089,6.089,0,0,0-2.266-4.488A3.654,3.654,0,0,1,29.444,266.48Zm-7.357,3.678a3.678,3.678,0,1,1-3.678,3.678A3.682,3.682,0,0,1,22.087,270.158ZM14.73,266.48a3.654,3.654,0,0,1,3.518,2.616,6.09,6.09,0,0,0-2.269,4.515,3.739,3.739,0,0,1-1.251.208,6.111,6.111,0,0,0-3.246-5.36A3.694,3.694,0,0,1,14.73,266.48ZM8.6,270.158a3.678,3.678,0,1,1-3.678,3.678A3.678,3.678,0,0,1,8.6,270.158Zm4.9,16.385v8.137H2.469v-8.137A6.373,6.373,0,0,1,8.6,279.967a6.086,6.086,0,0,1,5.416,3.537A9.383,9.383,0,0,0,13.5,286.543Zm-1-8.02a6.135,6.135,0,0,0,1.723-2.265c.167.014.334.031.5.031a6.142,6.142,0,0,0,1.658-.232,6.12,6.12,0,0,0,1.787,2.46,8.739,8.739,0,0,0-2.836,2.466A8.671,8.671,0,0,0,12.5,278.523Zm15.713,8.02v8.137H15.956v-8.137a6.373,6.373,0,0,1,6.131-6.576A6.373,6.373,0,0,1,28.218,286.543ZM26,278.517a6.122,6.122,0,0,0,1.787-2.46,6.046,6.046,0,0,0,3.316,0,6.12,6.12,0,0,0,1.787,2.46,8.827,8.827,0,0,0-3.445,3.4A8.827,8.827,0,0,0,26,278.517Zm16.932,8.026v8.137H30.67v-8.137a6.373,6.373,0,0,1,6.131-6.576A6.373,6.373,0,0,1,42.931,286.543Zm-2.219-8.026a6.122,6.122,0,0,0,1.787-2.46,6.046,6.046,0,0,0,3.316,0,6.12,6.12,0,0,0,1.787,2.46,8.827,8.827,0,0,0-3.445,3.4A8.827,8.827,0,0,0,40.712,278.517Zm16.932,8.026v8.137H45.383v-8.137a6.146,6.146,0,1,1,12.261,0Zm.618-5.56a8.743,8.743,0,0,0-2.836-2.466,6.123,6.123,0,0,0,1.787-2.46,6.143,6.143,0,0,0,1.658.232c.168,0,.335-.018.5-.031a6.135,6.135,0,0,0,1.723,2.265A8.671,8.671,0,0,0,58.262,280.983Zm12.87,5.56v8.137H60.1v-8.137a9.384,9.384,0,0,0-.511-3.039A6.086,6.086,0,0,1,65,279.967,6.373,6.373,0,0,1,71.132,286.543Z" transform="translate(-0.017 -264.026)" fill="#707070"/>
      </g>
    </g>
    <g id="Group_53" data-name="Group 53" transform="translate(19.635 0)">
      <g id="Group_52" data-name="Group 52">
        <path id="Path_166" data-name="Path 166" d="M159.75,2.884l-.13-.13a9.6,9.6,0,0,0-13.46,0l-.975.964-.975-.964a9.6,9.6,0,0,0-13.46,0,9.1,9.1,0,0,0-.13,12.871l.134.134,13.572,13.323a1.226,1.226,0,0,0,1.717,0l13.576-13.327A9.1,9.1,0,0,0,159.75,2.884ZM158.006,13.9l-.107.107-12.714,12.48-12.71-12.477a6.65,6.65,0,0,1-.11-9.4l.11-.11h0a7.143,7.143,0,0,1,10.011,0l1.837,1.818a1.227,1.227,0,0,0,1.724,0L147.885,4.5a7.143,7.143,0,0,1,10.011,0A6.65,6.65,0,0,1,158.006,13.9Z" transform="translate(-128.021 0)" fill="#707070"/>
      </g>
    </g>
    <g id="Group_55" data-name="Group 55" transform="translate(0.017 18.404)">
      <g id="Group_54" data-name="Group 54" transform="translate(0)">
        <path id="Path_167" data-name="Path 167" d="M18.131,122.142q-.17-.185-.355-.355a6.531,6.531,0,0,0-7.948-.659,6.535,6.535,0,0,0-7.948.659,5.734,5.734,0,0,0-.355,8.1q.17.185.355.355l7.11,6.666a1.225,1.225,0,0,0,1.676,0l7.11-6.666A5.734,5.734,0,0,0,18.131,122.142Zm-1.792,6.072a3.3,3.3,0,0,1-.24.24l-6.272,5.879-6.272-5.879a3.284,3.284,0,0,1,0-4.878,4.033,4.033,0,0,1,5.434,0,1.223,1.223,0,0,0,1.676,0,4.033,4.033,0,0,1,5.434,0A3.284,3.284,0,0,1,16.34,128.214Z" transform="translate(-0.019 -120.081)" fill="#707070"/>
      </g>
    </g>
    <g id="Group_57" data-name="Group 57" transform="translate(53.966 18.404)">
      <g id="Group_56" data-name="Group 56">
        <path id="Path_168" data-name="Path 168" d="M370.131,122.141q-.17-.185-.355-.355a6.531,6.531,0,0,0-7.948-.659,6.535,6.535,0,0,0-7.948.659,5.734,5.734,0,0,0-.355,8.1q.17.185.355.355l7.11,6.666a1.225,1.225,0,0,0,1.676,0l7.11-6.666A5.734,5.734,0,0,0,370.131,122.141Zm-1.792,6.072a3.3,3.3,0,0,1-.24.24h0l-6.272,5.879-6.272-5.879a3.284,3.284,0,0,1,0-4.878,4.033,4.033,0,0,1,5.434,0,1.223,1.223,0,0,0,1.676,0,4.033,4.033,0,0,1,5.434,0A3.284,3.284,0,0,1,368.34,128.214Z" transform="translate(-352.019 -120.081)" fill="#707070"/>
      </g>
    </g>
  </g>
</svg>
