<svg xmlns="http://www.w3.org/2000/svg" width="67.818" height="67.319" viewBox="0 0 67.818 67.319">
  <g id="sale_1_" data-name="sale (1)" transform="translate(0 -0.345)">
    <path id="Path_28" data-name="Path 28" d="M116.194,29.5l0,.043a7.32,7.32,0,0,0,4.178,6.983l.028.014a4.921,4.921,0,0,1,2.229,2.144l.011.02a7.648,7.648,0,0,0,7.188,4.011l.046,0a5.234,5.234,0,0,1,3.094.8,7.846,7.846,0,0,0,8.321,0,5.234,5.234,0,0,1,3.094-.8l.046,0a7.653,7.653,0,0,0,7.19-4.015l.007-.014a4.93,4.93,0,0,1,2.236-2.148l.022-.011a7.32,7.32,0,0,0,4.178-6.983l0-.041a4.683,4.683,0,0,1,.815-2.9,7.2,7.2,0,0,0,0-8.144,4.683,4.683,0,0,1-.816-2.9l0-.043a7.319,7.319,0,0,0-4.18-6.984l-.025-.012a4.917,4.917,0,0,1-2.226-2.136l-.014-.028a7.654,7.654,0,0,0-7.187-4.011l-.046,0a5.23,5.23,0,0,1-3.093-.8h0a7.846,7.846,0,0,0-8.321,0,5.238,5.238,0,0,1-3.094.8l-.046,0a7.649,7.649,0,0,0-7.187,4.01l-.01.019A4.924,4.924,0,0,1,120.4,8.517l-.026.012a7.319,7.319,0,0,0-4.178,6.983l0,.041a4.68,4.68,0,0,1-.815,2.9,7.2,7.2,0,0,0,0,8.144,4.68,4.68,0,0,1,.814,2.9Zm1.264-9.612a7.219,7.219,0,0,0,1.258-4.478l0-.043a4.8,4.8,0,0,1,2.758-4.565l.022-.01a7.435,7.435,0,0,0,3.367-3.242l.012-.023a5.12,5.12,0,0,1,4.818-2.663l.044,0a7.736,7.736,0,0,0,4.576-1.189,5.307,5.307,0,0,1,5.629,0,7.753,7.753,0,0,0,4.575,1.19l.044,0a5.112,5.112,0,0,1,4.816,2.658l.017.031a7.434,7.434,0,0,0,3.364,3.237l.021.01a4.8,4.8,0,0,1,2.76,4.567l0,.045a7.218,7.218,0,0,0,1.258,4.478,4.663,4.663,0,0,1,0,5.276,7.225,7.225,0,0,0-1.257,4.479l0,.043a4.8,4.8,0,0,1-2.761,4.568l-.018.009a7.443,7.443,0,0,0-3.371,3.247l-.009.018a5.118,5.118,0,0,1-4.818,2.663l-.044,0a7.75,7.75,0,0,0-4.577,1.19,5.307,5.307,0,0,1-5.628,0,7.738,7.738,0,0,0-4.148-1.2q-.214,0-.428.012l-.044,0a5.114,5.114,0,0,1-4.819-2.666l-.013-.024a7.426,7.426,0,0,0-3.362-3.236l-.023-.012a4.8,4.8,0,0,1-2.76-4.567l0-.045a7.225,7.225,0,0,0-1.258-4.478,4.663,4.663,0,0,1,0-5.275Zm0,0" transform="translate(-96.106)" fill="#fff"/>
    <path id="Path_29" data-name="Path 29" d="M205.1,83.233a1.262,1.262,0,0,0,1.739-.4L221.8,58.869a1.263,1.263,0,1,0-2.142-1.337L204.7,81.493a1.262,1.262,0,0,0,.4,1.74Zm0,0" transform="translate(-172.227 -47.651)" fill="#fff"/>
    <path id="Path_30" data-name="Path 30" d="M187.01,73.436c3.075,0,5.576-2.853,5.576-6.359s-2.5-6.358-5.576-6.358-5.576,2.852-5.576,6.358S183.935,73.436,187.01,73.436Zm0-10.192c1.683,0,3.051,1.719,3.051,3.833s-1.369,3.834-3.051,3.834-3.051-1.721-3.051-3.834S185.328,63.244,187.01,63.244Zm0,0" transform="translate(-152.798 -50.844)" fill="#fff"/>
    <path id="Path_31" data-name="Path 31" d="M267.684,146.874c0,3.506,2.5,6.358,5.576,6.358s5.576-2.853,5.576-6.358-2.5-6.358-5.576-6.358S267.684,143.367,267.684,146.874Zm8.627,0c0,2.113-1.369,3.833-3.051,3.833s-3.051-1.719-3.051-3.833,1.369-3.833,3.051-3.833S276.311,144.759,276.311,146.874Zm0,0" transform="translate(-225.435 -118.047)" fill="#fff"/>
    <path id="Path_32" data-name="Path 32" d="M67.655,273.1a6.378,6.378,0,0,0-8.422-2.567l-9.891,4.673a8.057,8.057,0,0,0-6.868-4.237l-9.131-.252a9.652,9.652,0,0,1-4.15-1.072l-.929-.481a16.388,16.388,0,0,0-15.179.016l.058-2.1a1.263,1.263,0,0,0-1.227-1.3L1.9,265.506a1.262,1.262,0,0,0-1.3,1.227L0,288.706A1.263,1.263,0,0,0,1.228,290l10.012.276h.035a1.264,1.264,0,0,0,1.262-1.228L12.566,288l2.6-1.393a4.463,4.463,0,0,1,3.33-.364L34.03,290.6c.027.008.054.014.082.02a16.634,16.634,0,0,0,3.414.352,16.847,16.847,0,0,0,7.038-1.536,1.236,1.236,0,0,0,.157-.085l22.52-14.568a1.262,1.262,0,0,0,.414-1.682ZM2.56,287.513,3.1,268.066l7.488.206-.536,19.448Zm40.866-.331a14.311,14.311,0,0,1-8.755.977L19.18,283.811a6.979,6.979,0,0,0-5.2.569l-1.329.711L13,272.161a13.878,13.878,0,0,1,14.1-.752l.929.482a12.189,12.189,0,0,0,5.242,1.354l9.131.252a5.537,5.537,0,0,1,5.263,4.412l-13.6-.374A1.263,1.263,0,0,0,34,280.059l15.009.413h.036a1.264,1.264,0,0,0,1.261-1.228,8.057,8.057,0,0,0-.122-1.638l10.143-4.793.03-.014a3.856,3.856,0,0,1,4.363.61Zm0,0" transform="translate(0 -223.31)" fill="#fff"/>
  </g>
</svg>
