<svg xmlns="http://www.w3.org/2000/svg" width="10" height="11.243" viewBox="0 0 10 11.243">
  <g id="pencil" transform="translate(0 -0.002)">
    <g id="Group_33" data-name="Group 33" transform="translate(0 0.002)">
      <path id="Path_57" data-name="Path 57" d="M9.733,1.827,8.37.292a.857.857,0,0,0-1.286,0L.975,7.229a.266.266,0,0,0-.057.11l-.909,3.58a.278.278,0,0,0,.058.251.215.215,0,0,0,.161.075.206.206,0,0,0,.062-.01l3.182-1.023a.224.224,0,0,0,.1-.064L9.733,3.273a1.115,1.115,0,0,0,0-1.447Zm-3.64.325.837.941L2.562,8,2.248,7.3a.226.226,0,0,0-.2-.141H1.681ZM.558,10.617l.3-1.165.74.832Zm2.624-.843-1.087.349L1,8.89l.311-1.223h.6l.392.881a.243.243,0,0,0,.1.114l.783.44v.671Zm.455-.42V8.945a.261.261,0,0,0-.126-.229l-.627-.352L7.251,3.453l.837.941ZM9.413,2.918l-1,1.117-2-2.246L7.406.663a.429.429,0,0,1,.643,0L9.412,2.2a.557.557,0,0,1,0,.722Z" transform="translate(0 -0.002)" fill="#a2a2a2"/>
    </g>
  </g>
</svg>
