<svg xmlns="http://www.w3.org/2000/svg" width="62" height="62" viewBox="0 0 62 62">
  <g id="prospect" transform="translate(-1 -1)">
    <path id="Path_33" data-name="Path 33" d="M60,27a3,3,0,0,0,3-3V22a3,3,0,0,0-3-3H57V18a9.01,9.01,0,0,0-5.623-8.337,5,5,0,1,0-6.754,0A9.043,9.043,0,0,0,40,13.9a9.046,9.046,0,0,0-4.623-4.232,5,5,0,1,0-6.754,0A9.043,9.043,0,0,0,24,13.9a9.046,9.046,0,0,0-4.623-4.232,5,5,0,1,0-6.754,0A9.01,9.01,0,0,0,7,18v1H4a3,3,0,0,0-3,3v2a3,3,0,0,0,3,3H5.474L15.1,41H4a3,3,0,0,0-3,3V60a3,3,0,0,0,3,3H28a3,3,0,0,0,3-3V59h2v1a3,3,0,0,0,3,3H60a3,3,0,0,0,3-3V44a3,3,0,0,0-3-3H48.9l9.625-14ZM45,6a3,3,0,1,1,3,3A3,3,0,0,1,45,6Zm3,5a7.008,7.008,0,0,1,7,7v1H41V18A7.008,7.008,0,0,1,48,11ZM29,6a3,3,0,1,1,3,3A3,3,0,0,1,29,6Zm3,5a7.008,7.008,0,0,1,7,7v1H25V18A7.008,7.008,0,0,1,32,11ZM13,6a3,3,0,1,1,3,3A3,3,0,0,1,13,6ZM9,18a7,7,0,0,1,14,0v1H9ZM3,24V22a1,1,0,0,1,1-1H60a1,1,0,0,1,1,1v2a1,1,0,0,1-1,1H4A1,1,0,0,1,3,24Zm7,26a3,3,0,1,1,3,3A3,3,0,0,1,10,50ZM7,61a6,6,0,0,1,12,0Zm22-1a1,1,0,0,1-1,1H21a8.005,8.005,0,0,0-4.695-7.277,5,5,0,1,0-6.61,0A8.005,8.005,0,0,0,5,61H4a1,1,0,0,1-1-1V44a1,1,0,0,1,1-1H28a1,1,0,0,1,1,1ZM42,50a3,3,0,1,1,3,3A3,3,0,0,1,42,50ZM39,61a6,6,0,0,1,12,0ZM61,44V60a1,1,0,0,1-1,1H53a8.005,8.005,0,0,0-4.695-7.277,5,5,0,1,0-6.61,0A8.005,8.005,0,0,0,37,61H36a1,1,0,0,1-1-1V44a1,1,0,0,1,1-1H60A1,1,0,0,1,61,44ZM46.474,41H36a3,3,0,0,0-3,3V57H31V44a3,3,0,0,0-3-3H17.526L7.9,27H56.1Z"/>
    <path id="Path_34" data-name="Path 34" d="M36,37a3,3,0,1,0-3-3A3,3,0,0,0,36,37Zm0-4a1,1,0,1,1-1,1A1,1,0,0,1,36,33Z"/>
    <path id="Path_35" data-name="Path 35" d="M44,37a3,3,0,1,0-3-3A3,3,0,0,0,44,37Zm0-4a1,1,0,1,1-1,1A1,1,0,0,1,44,33Z"/>
    <path id="Path_36" data-name="Path 36" d="M28,37a3,3,0,1,0-3-3A3,3,0,0,0,28,37Zm0-4a1,1,0,1,1-1,1A1,1,0,0,1,28,33Z"/>
    <path id="Path_37" data-name="Path 37" d="M20,37a3,3,0,1,0-3-3A3,3,0,0,0,20,37Zm0-4a1,1,0,1,1-1,1A1,1,0,0,1,20,33Z"/>
    <path id="Path_38" data-name="Path 38" d="M21,59h6V53H21Zm2-4h2v2H23Z"/>
    <path id="Path_39" data-name="Path 39" d="M20,45h7v2H20Z"/>
    <path id="Path_40" data-name="Path 40" d="M20,49h7v2H20Z"/>
    <path id="Path_41" data-name="Path 41" d="M53,59h6V53H53Zm2-4h2v2H55Z"/>
    <path id="Path_42" data-name="Path 42" d="M52,49h7v2H52Z"/>
  </g>
</svg>
