<svg id="radar" xmlns="http://www.w3.org/2000/svg" width="62" height="62" viewBox="0 0 62 62">
  <g id="Group_49" data-name="Group 49">
    <path id="Path_164" data-name="Path 164" d="M56.833,35.133h-.558A6.184,6.184,0,0,0,52.7,24.893V12.253a4.125,4.125,0,1,0-5.02-5.02H39.905L38.124,3.671a1.033,1.033,0,0,0-1.937.259L34.192,13.9,32.019.863A1.033,1.033,0,0,0,31.032,0H31a1.034,1.034,0,0,0-1.007.8L27.538,11.434,25.724,7.8a1.033,1.033,0,0,0-.924-.57H14.32a4.125,4.125,0,1,0-5.02,5.02v12.64a6.184,6.184,0,0,0-3.575,10.24H5.167A5.173,5.173,0,0,0,0,40.3v7.233a1.033,1.033,0,0,0,1.033,1.033h3.1v12.4A1.033,1.033,0,0,0,5.167,62H15.5a1.033,1.033,0,0,0,1.033-1.033v-12.4h3.1a1.033,1.033,0,0,0,1.033-1.033V40.3A5.173,5.173,0,0,0,15.5,35.133h-.558a6.184,6.184,0,0,0-3.575-10.24V12.253A4.128,4.128,0,0,0,14.32,9.3h9.841l2.815,5.629a1.033,1.033,0,0,0,1.931-.229l1.929-8.362L33.081,19.8a1.031,1.031,0,0,0,1,.863H34.1a1.032,1.032,0,0,0,1.013-.831l2.51-12.547.719,1.439a1.031,1.031,0,0,0,.924.572H47.68a4.128,4.128,0,0,0,2.953,2.953v12.64a6.184,6.184,0,0,0-3.575,10.24H46.5A5.173,5.173,0,0,0,41.333,40.3v7.233a1.033,1.033,0,0,0,1.033,1.033h3.1v12.4A1.033,1.033,0,0,0,46.5,62H56.833a1.033,1.033,0,0,0,1.033-1.033v-12.4h3.1A1.033,1.033,0,0,0,62,47.533V40.3A5.173,5.173,0,0,0,56.833,35.133ZM15.5,37.2a3.1,3.1,0,0,1,3.1,3.1v6.2H16.533V40.3H14.467V59.933h-3.1V48.567H9.3V59.933H6.2V40.3H4.133v6.2H2.067V40.3a3.1,3.1,0,0,1,3.1-3.1ZM14.467,31a4.133,4.133,0,1,1-4.133-4.133A4.137,4.137,0,0,1,14.467,31ZM10.333,10.333A2.067,2.067,0,1,1,12.4,8.267,2.069,2.069,0,0,1,10.333,10.333ZM49.6,8.267a2.067,2.067,0,1,1,2.067,2.067A2.069,2.069,0,0,1,49.6,8.267Zm2.067,18.6A4.133,4.133,0,1,1,47.533,31,4.137,4.137,0,0,1,51.667,26.867ZM59.933,46.5H57.867V40.3H55.8V59.933H52.7V48.567H50.633V59.933h-3.1V40.3H45.467v6.2H43.4V40.3a3.1,3.1,0,0,1,3.1-3.1H56.833a3.1,3.1,0,0,1,3.1,3.1Z" fill="#707070"/>
  </g>
</svg>
