<svg id="sale" xmlns="http://www.w3.org/2000/svg" width="56" height="56" viewBox="0 0 56 56">
  <g id="Group_2" data-name="Group 2">
    <g id="Group_1" data-name="Group 1">
      <path id="Path_19" data-name="Path 19" d="M0,0V56H56V0ZM52.719,52.719H3.281V15.094H52.719Zm0-40.906H3.281V3.281H52.719Z" fill="#fff"/>
    </g>
  </g>
  <g id="Group_4" data-name="Group 4" transform="translate(8.101 21.842)">
    <g id="Group_3" data-name="Group 3">
      <path id="Path_20" data-name="Path 20" d="M79.055,199.694a4.985,4.985,0,1,0,4.985,4.985A4.99,4.99,0,0,0,79.055,199.694Zm0,6.688a1.7,1.7,0,1,1,1.7-1.7A1.705,1.705,0,0,1,79.055,206.382Z" transform="translate(-74.07 -199.694)" fill="#fff"/>
    </g>
  </g>
  <g id="Group_6" data-name="Group 6" transform="translate(19.641 36.644)">
    <g id="Group_5" data-name="Group 5">
      <path id="Path_21" data-name="Path 21" d="M184.56,335.029a4.985,4.985,0,1,0,4.985,4.985A4.99,4.99,0,0,0,184.56,335.029Zm0,6.688a1.7,1.7,0,1,1,1.7-1.7A1.705,1.705,0,0,1,184.56,341.717Z" transform="translate(-179.575 -335.029)" fill="#fff"/>
    </g>
  </g>
  <g id="Group_8" data-name="Group 8" transform="translate(8.93 21.827)">
    <g id="Group_7" data-name="Group 7" transform="translate(0 0)">
      <rect id="Rectangle_30" data-name="Rectangle 30" width="28.601" height="3.281" transform="translate(0 22.824) rotate(-52.938)" fill="#fff"/>
    </g>
  </g>
  <g id="Group_10" data-name="Group 10" transform="translate(34.817 5.76)">
    <g id="Group_9" data-name="Group 9">
      <rect id="Rectangle_31" data-name="Rectangle 31" width="3.318" height="3.318" fill="#fff"/>
    </g>
  </g>
  <g id="Group_12" data-name="Group 12" transform="translate(40.688 5.76)">
    <g id="Group_11" data-name="Group 11">
      <rect id="Rectangle_32" data-name="Rectangle 32" width="3.318" height="3.318" fill="#fff"/>
    </g>
  </g>
  <g id="Group_14" data-name="Group 14" transform="translate(46.558 5.76)">
    <g id="Group_13" data-name="Group 13">
      <rect id="Rectangle_33" data-name="Rectangle 33" width="3.318" height="3.318" fill="#fff"/>
    </g>
  </g>
  <g id="Group_16" data-name="Group 16" transform="translate(34.817 23.895)">
    <g id="Group_15" data-name="Group 15">
      <rect id="Rectangle_34" data-name="Rectangle 34" width="12.681" height="3.281" fill="#fff"/>
    </g>
  </g>
  <g id="Group_18" data-name="Group 18" transform="translate(34.817 32.277)">
    <g id="Group_17" data-name="Group 17">
      <rect id="Rectangle_35" data-name="Rectangle 35" width="12.681" height="3.281" fill="#fff"/>
    </g>
  </g>
  <g id="Group_20" data-name="Group 20" transform="translate(34.817 40.657)">
    <g id="Group_19" data-name="Group 19">
      <rect id="Rectangle_36" data-name="Rectangle 36" width="12.681" height="3.281" fill="#fff"/>
    </g>
  </g>
</svg>
